<?xml version="1.0" encoding="utf-8"?>
<!-- Generator: Adobe Illustrator 22.1.0, SVG Export Plug-In . SVG Version: 6.00 Build 0)  -->
<svg version="1.1" id="Layer_1" xmlns="http://www.w3.org/2000/svg" xmlns:xlink="http://www.w3.org/1999/xlink" x="0px" y="0px"
	 viewBox="0 0 2036 1000" style="enable-background:new 0 0 2036 1000;" xml:space="preserve">
<style type="text/css">
	.st0{fill:#820000;}
	.st1{fill:#EC7A08;}
	.st2{fill:#0088CE;}
	.st3{fill:#3F9C35;}
	.st4{fill:#CC0000;}
	.st5{fill:#F0AB00;}
	.st6{fill:#00B9E4;}
	.st7{fill:#92D400;}
	.st8{fill:#FFFFFF;}
</style>
<title>RHD_</title>
<rect x="189.8" y="350.9" class="st0" width="48.2" height="48.2"/>
<rect x="238" y="434.6" class="st1" width="96.3" height="48.2"/>
<rect x="189.8" y="602.2" class="st2" width="96.3" height="48.2"/>
<rect x="141.7" y="518.5" class="st3" width="48.2" height="48.2"/>
<rect x="273.7" y="350.9" class="st0" width="96.3" height="48.2"/>
<rect x="370" y="434.6" class="st1" width="48.2" height="48.2"/>
<rect x="321.9" y="602.2" class="st2" width="48.2" height="48.2"/>
<rect x="225.6" y="518.5" class="st3" width="96.3" height="48.2"/>
<rect x="370" y="350.9" class="st4" width="144.5" height="48.2"/>
<rect x="418.2" y="434.6" class="st5" width="144.5" height="48.2"/>
<rect x="370" y="602.2" class="st6" width="96.3" height="48.2"/>
<rect x="321.9" y="518.5" class="st7" width="192.7" height="48.2"/>
<path class="st8" d="M778.6,607.1c-3.8,10.1-9.1,18.4-15.8,24.8c-6.8,6.4-14.9,11.2-23.8,14c-9.5,3-19.4,4.4-29.4,4.4h-38.4V493.1
	h41.5c9.7-0.1,19.4,1.4,28.6,4.5c8.5,2.9,16.3,7.6,22.7,14c6.7,6.9,11.8,15.1,15,24.2c3.6,9.7,5.4,21.3,5.4,34.8
	C784.4,584.8,782.4,597,778.6,607.1z M752.7,525c-9.4-10.6-23.2-15.9-41.3-15.9h-22.7v125.3h23.1c7.8,0.1,15.5-1.1,22.9-3.5
	c6.6-2.2,12.5-6,17.3-11.1c4.8-5.1,8.5-11.6,11-19.7s3.8-17.6,3.8-28.9C766.8,551.1,762.1,535.7,752.7,525z"/>
<path class="st8" d="M818.9,650.3V493.1h95v15.9h-77.5v49.4h44.9v15.9h-44.9v60h80.8v15.9L818.9,650.3z"/>
<path class="st8" d="M1012.9,650.3h-19.3l-53.4-157.2h18.4l35,107.6c0.7,2.4,1.6,5.1,2.6,8.1c1,3,1.9,6,2.8,8.9
	c0.9,2.9,1.7,5.7,2.5,8.2s1.3,4.5,1.8,5.8c0.4-1.3,1-3.3,1.8-6c0.7-2.7,1.6-5.5,2.6-8.4c1-3,1.9-6,2.9-9.1c1-3.1,1.8-5.7,2.6-8
	l35.2-107.1h18L1012.9,650.3z"/>
<path class="st8" d="M1098.9,650.3V493.1h95v15.9h-77.5v49.4h44.9v15.9h-44.9v60h80.8v15.9L1098.9,650.3z"/>
<path class="st8" d="M1230.8,650.3V493.1h17.5v141.2h77.7v15.9H1230.8z"/>
<path class="st8" d="M1473.3,604.2c-2.8,9.3-7.3,18-13.4,25.7c-5.6,7.1-12.7,12.8-20.8,16.8c-16.9,8-36.4,8.1-53.3,0.1
	c-8-4-15-9.7-20.6-16.7c-5.9-7.6-10.4-16.3-13.1-25.6c-3.2-10.6-4.7-21.5-4.6-32.6c-0.1-11.1,1.5-22.1,4.7-32.7
	c2.8-9.3,7.3-18,13.2-25.7c5.6-7.1,12.6-12.8,20.7-16.8c16.9-8,36.4-8.1,53.3-0.1c8,4,15,9.7,20.5,16.7c5.9,7.7,10.4,16.3,13.2,25.6
	c3.3,10.5,4.9,21.5,4.8,32.6C1478.1,582.6,1476.5,593.6,1473.3,604.2z M1456.8,545.1c-2.2-7.4-5.6-14.4-10.2-20.7
	c-4-5.5-9.3-10-15.3-13.2c-5.9-3.1-12.4-4.7-19.1-4.6c-6.5,0-13,1.5-18.8,4.6c-5.9,3.2-11,7.6-14.9,13c-4.5,6.2-7.8,13.1-9.9,20.4
	c-2.5,8.7-3.7,17.8-3.6,26.8c-0.1,9.1,1.1,18.1,3.7,26.8c2.2,7.4,5.6,14.4,10.2,20.7c4,5.5,9.2,10,15.1,13.2
	c5.9,3.1,12.4,4.7,19.1,4.6c6.6,0,13-1.5,18.9-4.6c5.9-3.1,11-7.6,15-13c4.5-6.2,7.8-13.1,9.9-20.4c2.5-8.7,3.7-17.8,3.6-26.8
	C1460.6,562.9,1459.3,553.8,1456.8,545.1z"/>
<path class="st8" d="M1617.6,560.8c-2.5,5.8-6.2,11-10.9,15.3c-4.9,4.3-10.6,7.4-16.8,9.3c-7,2.2-14.3,3.2-21.6,3.1h-38.2v61.8
	h-17.5V493.1h58.8c6.7-0.1,13.4,0.9,19.9,2.8c5.8,1.7,11.2,4.7,15.8,8.6c4.6,4,8.2,9.1,10.6,14.7
	C1622.8,532.7,1622.8,547.5,1617.6,560.8L1617.6,560.8z M1595.4,517.3c-5.7-5.5-13.9-8.2-24.7-8.2h-40.6v63.5h38.4
	c23.6,0,35.5-10.6,35.5-31.9C1604,530.6,1601.1,522.7,1595.4,517.3L1595.4,517.3z"/>
<path class="st8" d="M1651.3,650.3V493.1h95v15.9h-77.5v49.4h44.9v15.9h-44.9v60h80.8v15.9L1651.3,650.3z"/>
<path class="st8" d="M1884.2,567.2c-6.7,7.5-15.7,12.4-26.9,14.8l34.6,68.3h-20.2l-33.7-66.9h-37.3v66.9h-17.5V493.1h62.2
	c6.5-0.1,13,0.9,19.3,2.7c5.7,1.6,11,4.4,15.5,8.2c4.4,3.8,8,8.5,10.3,13.8c2.5,5.5,3.8,12.1,3.8,19.8
	C1894.3,549.9,1891,559.7,1884.2,567.2z M1868.6,516.3c-5.5-4.8-13.4-7.3-23.9-7.3h-44v58.4h41.8c11.7,0,20.3-2.4,25.9-7.3
	s8.4-12.2,8.4-22C1876.8,528.5,1874.1,521.2,1868.6,516.3L1868.6,516.3z"/>
<path class="st8" d="M1370.4,366.2c-1.3,3.2-3.9,5.8-7.1,7c-3.4,1.3-7.3,1.3-10.7,0c-3.2-1.2-5.8-3.8-7.1-7c-1.4-3.5-1.4-7.5,0-11
	c1.3-3.2,3.9-5.8,7.1-7c3.4-1.3,7.2-1.3,10.7,0c3.2,1.2,5.8,3.8,7.1,7C1371.8,358.8,1371.8,362.7,1370.4,366.2z M1368.7,355.9
	c-1.1-2.8-3.4-5-6.2-6.1c-3-1.1-6.2-1.1-9.2,0c-2.8,1.1-5,3.3-6.2,6.1c-1.2,3.1-1.2,6.5,0,9.6c0.6,1.4,1.4,2.7,2.5,3.7
	c1.1,1,2.3,1.9,3.7,2.4c3,1.1,6.2,1.1,9.2,0c2.8-1.1,5.1-3.3,6.2-6.1C1369.9,362.4,1369.9,359,1368.7,355.9L1368.7,355.9z
	 M1363,360.1c-0.7,0.7-1.5,1.3-2.5,1.5l3.3,6.4h-2.3l-3.2-6.2h-3.2v6.2h-2V353h6.1c1.2-0.1,2.4,0.3,3.4,1c1,0.8,1.5,2,1.4,3.2
	C1363.9,358.3,1363.6,359.3,1363,360.1L1363,360.1z M1361.2,355.4c-0.6-0.5-1.4-0.7-2.2-0.6h-4v5h3.8c2.1,0,3.1-0.8,3.1-2.5
	C1361.9,356.6,1361.7,355.9,1361.2,355.4L1361.2,355.4z"/>
<path class="st8" d="M728.5,455.7l-17.1-35.3h-11.7v35.3h-28.6V350.9H718c24.5,0,40.9,9.3,40.9,34.1c0,15.7-7.3,25.5-18.9,30.7
	l21,40L728.5,455.7z M717.3,374.5h-17.5v22.9h17.1c9.4,0,13.2-4.2,13.2-11.7C730,379.2,726.4,374.5,717.3,374.5L717.3,374.5z"/>
<path class="st8" d="M778.3,455.7V350.9h80.2v24.4h-51.5v13.9h31v24.1h-31v18h52.5v24.4L778.3,455.7z"/>
<path class="st8" d="M912.2,455.7h-34V350.9h36.7c32.9,0,53.9,12.4,53.9,51.8S949.3,455.7,912.2,455.7z M914.7,375.7h-7.2v55.1h6.3
	c18.1,0,25.2-6.9,25.2-27.7C939,383.8,932.8,375.7,914.7,375.7L914.7,375.7z"/>
<path class="st8" d="M1098,455.7v-41.3h-32.6v41.3h-29.7V350.9h29.7V389h32.6v-38.1h29.6v104.8L1098,455.7z"/>
<path class="st8" d="M1216.5,455.7l-5.7-18.4h-31.4l-5.7,18.4h-31.1l38-104.8h29.3l38,104.8L1216.5,455.7z M1201.9,407.3
	c-3.8-13.5-5.4-19.2-6.7-26.2c-1.3,7-3,12.9-6.7,26.2l-1.9,6.9h17.4L1201.9,407.3z"/>
<path class="st8" d="M1302.8,376.2v79.5h-29v-79.5h-29.3v-25.3h87.7v25.3H1302.8z"/>
</svg>
