<svg id="Layer_1" data-name="Layer 1" xmlns="http://www.w3.org/2000/svg" viewBox="0 0 2404.89 953.35"><defs><style>.cls-1,.cls-2,.cls-3,.cls-4,.cls-5,.cls-6,.cls-7,.cls-8{fill:none;stroke-miterlimit:10;stroke-width:16.51px;}.cls-1{stroke:#0088ce;}.cls-2{stroke:#c00;}.cls-3{stroke:#f0ab00;}.cls-4{stroke:#3f9c35;}.cls-5{stroke:#ec7a08;}.cls-6{stroke:#92d400;}.cls-7{stroke:#00b9e4;}.cls-8{stroke:#820000;}</style></defs><title>RHD_Assets For Online Standards</title><line class="cls-1" x1="1065.05" y1="253.79" x2="1578.77" y2="253.79"/><line class="cls-2" x1="1192.79" y1="402.38" x2="1903.81" y2="402.38"/><path class="cls-3" d="M1652.4,625.27a46.43,46.43,0,0,0,32.83-13.6l47.09-47.09a46.43,46.43,0,0,1,32.83-13.6h17.91"/><path class="cls-3" d="M798.67,625.27h27.2a46.43,46.43,0,0,0,32.83-13.6L980.09,490.28a46.43,46.43,0,0,1,32.83-13.6h73.63"/><path class="cls-4" d="M44.6,105.2H71.8a46.43,46.43,0,0,1,32.83,13.6L226,240.19a46.43,46.43,0,0,0,32.83,13.6h73.63"/><path class="cls-3" d="M928.69,476.68h138.64a46.43,46.43,0,0,1,32.83,13.6l47.09,47.09a46.43,46.43,0,0,0,32.83,13.6h843.79a46.43,46.43,0,0,0,32.83-13.6l47.09-47.09a46.43,46.43,0,0,1,32.83-13.6h17.91"/><path class="cls-5" d="M0,476.68H343a46.43,46.43,0,0,1,32.83,13.6l47.09,47.09A46.43,46.43,0,0,0,455.72,551h17.91"/><path class="cls-5" d="M0,551H677.28a46.43,46.43,0,0,1,32.83,13.6l47.09,47.09A46.43,46.43,0,0,0,790,625.27h36.49"/><path class="cls-2" d="M724.95,402.38h676.38a46.43,46.43,0,0,0,32.83-13.6"/><path class="cls-2" d="M1434.16,388.78l47.09-47.09a46.43,46.43,0,0,1,32.83-13.6h27.2"/><path class="cls-6" d="M1518.07,193.1l121.39,121.39a46.43,46.43,0,0,0,32.83,13.6h36.49"/><line class="cls-2" x1="733" y1="402.38" x2="383.63" y2="402.38"/><path class="cls-7" d="M558.31,253.79h101.5a46.43,46.43,0,0,1,32.83,13.6l47.09,47.09a46.43,46.43,0,0,0,32.83,13.6H1810.28a46.43,46.43,0,0,1,32.83,13.6L1964.5,463.08a46.43,46.43,0,0,0,32.83,13.6h17.91"/><path class="cls-6" d="M1308.79,699.56a46.43,46.43,0,0,0,32.83-13.6l32.83-32.83"/><path class="cls-8" d="M306.47,402.38h82.92a46.43,46.43,0,0,0,32.83-13.6L543.61,267.39a46.43,46.43,0,0,1,32.83-13.6h45.77"/><path class="cls-1" d="M0,328.09H296.52a46.43,46.43,0,0,0,32.83-13.6l47.09-47.09a46.43,46.43,0,0,1,32.83-13.6H427.2"/><path class="cls-4" d="M0,773.86H420.43a46.43,46.43,0,0,0,32.83-13.6l47.09-47.09a46.43,46.43,0,0,1,32.83-13.6h27.2"/><path class="cls-3" d="M1253.73,551H1373.8a46.43,46.43,0,0,1,32.83,13.6l47.09,47.09a46.43,46.43,0,0,0,32.83,13.6H1625.2"/><path class="cls-4" d="M74.29,773.86h55.06a46.43,46.43,0,0,1,32.83,13.6l47.09,47.09a46.43,46.43,0,0,0,32.83,13.6H352.9"/><path class="cls-6" d="M882.25,699.56h92.21A46.43,46.43,0,0,0,1007.3,686l47.09-47.09a46.43,46.43,0,0,1,32.83-13.6h64.35"/><path class="cls-6" d="M197.83,105.2H290a46.43,46.43,0,0,1,32.83,13.6L370,165.9a46.43,46.43,0,0,0,32.83,13.6h64.35"/><path class="cls-1" d="M0,848.15H872.31a46.43,46.43,0,0,0,32.83-13.6l47.09-47.09a46.43,46.43,0,0,1,32.83-13.6h45.77"/><path class="cls-7" d="M579,699.56h17.91a46.43,46.43,0,0,1,32.83,13.6l47.09,47.09a46.43,46.43,0,0,0,32.83,13.6h524.85a46.43,46.43,0,0,0,32.83-13.6l121.39-121.39a46.43,46.43,0,0,1,32.83-13.6h17.91"/><path class="cls-4" d="M0,105.2H816.58a46.43,46.43,0,0,1,32.83,13.6l47.09,47.09a46.43,46.43,0,0,0,32.83,13.6h27.2"/><line class="cls-3" y1="625.27" x2="1652.4" y2="625.27"/><line class="cls-6" y1="699.56" x2="1308.79" y2="699.56"/><path class="cls-1" d="M0,253.79H1071.62a46.43,46.43,0,0,0,32.83-13.6l47.09-47.09a46.43,46.43,0,0,1,32.83-13.6h17.91"/><path class="cls-6" d="M455.27,179.5h1030a46.43,46.43,0,0,1,32.83,13.6"/><line class="cls-8" x1="306.47" y1="402.38" y2="402.38"/><path class="cls-2" d="M2404.89,476.68H622.22a46.43,46.43,0,0,1-32.83-13.6L542.29,416a46.43,46.43,0,0,0-32.83-13.6"/></svg>